<svg width="87" height="78" viewBox="0 0 87 78" fill="none" xmlns="http://www.w3.org/2000/svg">
<g opacity="0.3">
<mask id="mask0_420_4" style="mask-type:alpha" maskUnits="userSpaceOnUse" x="0" y="0" width="9" height="8">
<path d="M4.84552 7.97736C7.00642 7.97736 8.75818 6.19153 8.75818 3.98865C8.75818 1.78577 7.00642 0 4.84552 0C2.68461 0 0.932861 1.78577 0.932861 3.98865C0.932861 6.19153 2.68461 7.97736 4.84552 7.97736Z" fill="url(#paint0_linear_420_4)"/>
</mask>
<g mask="url(#mask0_420_4)">
<path d="M4.84552 7.97736C7.00642 7.97736 8.75818 6.19153 8.75818 3.98865C8.75818 1.78577 7.00642 0 4.84552 0C2.68461 0 0.932861 1.78577 0.932861 3.98865C0.932861 6.19153 2.68461 7.97736 4.84552 7.97736Z" fill="url(#paint1_linear_420_4)"/>
</g>
<mask id="mask1_420_4" style="mask-type:alpha" maskUnits="userSpaceOnUse" x="23" y="0" width="9" height="8">
<path d="M27.506 7.97736C29.6669 7.97736 31.4187 6.19153 31.4187 3.98865C31.4187 1.78577 29.6669 0 27.506 0C25.3451 0 23.5934 1.78577 23.5934 3.98865C23.5934 6.19153 25.3451 7.97736 27.506 7.97736Z" fill="url(#paint2_linear_420_4)"/>
</mask>
<g mask="url(#mask1_420_4)">
<path d="M27.5065 7.97736C29.6674 7.97736 31.4192 6.19153 31.4192 3.98865C31.4192 1.78577 29.6674 0 27.5065 0C25.3455 0 23.5938 1.78577 23.5938 3.98865C23.5938 6.19153 25.3455 7.97736 27.5065 7.97736Z" fill="url(#paint3_linear_420_4)"/>
</g>
<mask id="mask2_420_4" style="mask-type:alpha" maskUnits="userSpaceOnUse" x="46" y="0" width="9" height="8">
<path d="M50.1666 7.97736C52.3275 7.97736 54.0792 6.19153 54.0792 3.98865C54.0792 1.78577 52.3275 0 50.1666 0C48.0057 0 46.2539 1.78577 46.2539 3.98865C46.2539 6.19153 48.0057 7.97736 50.1666 7.97736Z" fill="url(#paint4_linear_420_4)"/>
</mask>
<g mask="url(#mask2_420_4)">
<path d="M50.1672 7.97736C52.3281 7.97736 54.0799 6.19153 54.0799 3.98865C54.0799 1.78577 52.3281 0 50.1672 0C48.0063 0 46.2546 1.78577 46.2546 3.98865C46.2546 6.19153 48.0063 7.97736 50.1672 7.97736Z" fill="url(#paint5_linear_420_4)"/>
</g>
<mask id="mask3_420_4" style="mask-type:alpha" maskUnits="userSpaceOnUse" x="68" y="0" width="9" height="8">
<path d="M72.827 7.97736C74.988 7.97736 76.7397 6.19153 76.7397 3.98865C76.7397 1.78577 74.988 0 72.827 0C70.6661 0 68.9143 1.78577 68.9143 3.98865C68.9143 6.19153 70.6661 7.97736 72.827 7.97736Z" fill="url(#paint6_linear_420_4)"/>
</mask>
<g mask="url(#mask3_420_4)">
<path d="M72.8276 7.97736C74.9886 7.97736 76.7404 6.19153 76.7404 3.98865C76.7404 1.78577 74.9886 0 72.8276 0C70.6667 0 68.9149 1.78577 68.9149 3.98865C68.9149 6.19153 70.6667 7.97736 72.8276 7.97736Z" fill="url(#paint7_linear_420_4)"/>
</g>
<mask id="mask4_420_4" style="mask-type:alpha" maskUnits="userSpaceOnUse" x="0" y="20" width="9" height="9">
<path d="M4.84552 28.0036C7.00642 28.0036 8.75818 26.2179 8.75818 24.015C8.75818 21.8122 7.00642 20.0264 4.84552 20.0264C2.68461 20.0264 0.932861 21.8122 0.932861 24.015C0.932861 26.2179 2.68461 28.0036 4.84552 28.0036Z" fill="url(#paint8_linear_420_4)"/>
</mask>
<g mask="url(#mask4_420_4)">
<path d="M4.84552 28.0037C7.00642 28.0037 8.75818 26.2179 8.75818 24.0151C8.75818 21.8122 7.00642 20.0265 4.84552 20.0265C2.68461 20.0265 0.932861 21.8122 0.932861 24.0151C0.932861 26.2179 2.68461 28.0037 4.84552 28.0037Z" fill="url(#paint9_linear_420_4)"/>
</g>
<mask id="mask5_420_4" style="mask-type:alpha" maskUnits="userSpaceOnUse" x="23" y="20" width="9" height="9">
<path d="M27.506 28.0038C29.6669 28.0038 31.4187 26.218 31.4187 24.0151C31.4187 21.8123 29.6669 20.0265 27.506 20.0265C25.3451 20.0265 23.5934 21.8123 23.5934 24.0151C23.5934 26.218 25.3451 28.0038 27.506 28.0038Z" fill="url(#paint10_linear_420_4)"/>
</mask>
<g mask="url(#mask5_420_4)">
<path d="M27.5065 28.0037C29.6674 28.0037 31.4192 26.218 31.4192 24.0151C31.4192 21.8122 29.6674 20.0264 27.5065 20.0264C25.3455 20.0264 23.5938 21.8122 23.5938 24.0151C23.5938 26.218 25.3455 28.0037 27.5065 28.0037Z" fill="url(#paint11_linear_420_4)"/>
</g>
<mask id="mask6_420_4" style="mask-type:alpha" maskUnits="userSpaceOnUse" x="46" y="20" width="9" height="9">
<path d="M50.1666 28.0038C52.3275 28.0038 54.0792 26.218 54.0792 24.0151C54.0792 21.8123 52.3275 20.0265 50.1666 20.0265C48.0057 20.0265 46.2539 21.8123 46.2539 24.0151C46.2539 26.218 48.0057 28.0038 50.1666 28.0038Z" fill="url(#paint12_linear_420_4)"/>
</mask>
<g mask="url(#mask6_420_4)">
<path d="M50.1672 28.0037C52.3281 28.0037 54.0799 26.218 54.0799 24.0151C54.0799 21.8122 52.3281 20.0264 50.1672 20.0264C48.0063 20.0264 46.2546 21.8122 46.2546 24.0151C46.2546 26.218 48.0063 28.0037 50.1672 28.0037Z" fill="url(#paint13_linear_420_4)"/>
</g>
<mask id="mask7_420_4" style="mask-type:alpha" maskUnits="userSpaceOnUse" x="68" y="20" width="9" height="9">
<path d="M72.827 28.0038C74.988 28.0038 76.7397 26.218 76.7397 24.0151C76.7397 21.8123 74.988 20.0265 72.827 20.0265C70.6661 20.0265 68.9143 21.8123 68.9143 24.0151C68.9143 26.218 70.6661 28.0038 72.827 28.0038Z" fill="url(#paint14_linear_420_4)"/>
</mask>
<g mask="url(#mask7_420_4)">
<path d="M72.8276 28.0037C74.9886 28.0037 76.7404 26.218 76.7404 24.0151C76.7404 21.8122 74.9886 20.0264 72.8276 20.0264C70.6667 20.0264 68.9149 21.8122 68.9149 24.0151C68.9149 26.218 70.6667 28.0037 72.8276 28.0037Z" fill="url(#paint15_linear_420_4)"/>
</g>
<mask id="mask8_420_4" style="mask-type:alpha" maskUnits="userSpaceOnUse" x="0" y="40" width="9" height="8">
<path d="M4.84552 47.9886C7.00642 47.9886 8.75818 46.2028 8.75818 44C8.75818 41.7971 7.00642 40.0113 4.84552 40.0113C2.68461 40.0113 0.932861 41.7971 0.932861 44C0.932861 46.2028 2.68461 47.9886 4.84552 47.9886Z" fill="url(#paint16_linear_420_4)"/>
</mask>
<g mask="url(#mask8_420_4)">
<path d="M4.84552 47.9888C7.00642 47.9888 8.75818 46.203 8.75818 44.0001C8.75818 41.7972 7.00642 40.0114 4.84552 40.0114C2.68461 40.0114 0.932861 41.7972 0.932861 44.0001C0.932861 46.203 2.68461 47.9888 4.84552 47.9888Z" fill="url(#paint17_linear_420_4)"/>
</g>
<mask id="mask9_420_4" style="mask-type:alpha" maskUnits="userSpaceOnUse" x="23" y="40" width="9" height="8">
<path d="M27.506 47.989C29.6669 47.989 31.4187 46.2032 31.4187 44.0003C31.4187 41.7974 29.6669 40.0116 27.506 40.0116C25.3451 40.0116 23.5934 41.7974 23.5934 44.0003C23.5934 46.2032 25.3451 47.989 27.506 47.989Z" fill="url(#paint18_linear_420_4)"/>
</mask>
<g mask="url(#mask9_420_4)">
<path d="M27.5065 47.9888C29.6674 47.9888 31.4192 46.203 31.4192 44.0001C31.4192 41.7972 29.6674 40.0114 27.5065 40.0114C25.3455 40.0114 23.5938 41.7972 23.5938 44.0001C23.5938 46.203 25.3455 47.9888 27.5065 47.9888Z" fill="url(#paint19_linear_420_4)"/>
</g>
<mask id="mask10_420_4" style="mask-type:alpha" maskUnits="userSpaceOnUse" x="46" y="40" width="9" height="8">
<path d="M50.1666 47.989C52.3275 47.989 54.0792 46.2032 54.0792 44.0003C54.0792 41.7974 52.3275 40.0116 50.1666 40.0116C48.0057 40.0116 46.2539 41.7974 46.2539 44.0003C46.2539 46.2032 48.0057 47.989 50.1666 47.989Z" fill="url(#paint20_linear_420_4)"/>
</mask>
<g mask="url(#mask10_420_4)">
<path d="M50.1672 47.9888C52.3281 47.9888 54.0799 46.203 54.0799 44.0001C54.0799 41.7972 52.3281 40.0114 50.1672 40.0114C48.0063 40.0114 46.2546 41.7972 46.2546 44.0001C46.2546 46.203 48.0063 47.9888 50.1672 47.9888Z" fill="url(#paint21_linear_420_4)"/>
</g>
<mask id="mask11_420_4" style="mask-type:alpha" maskUnits="userSpaceOnUse" x="68" y="40" width="9" height="8">
<path d="M72.827 47.989C74.988 47.989 76.7397 46.2032 76.7397 44.0003C76.7397 41.7974 74.988 40.0116 72.827 40.0116C70.6661 40.0116 68.9143 41.7974 68.9143 44.0003C68.9143 46.2032 70.6661 47.989 72.827 47.989Z" fill="url(#paint22_linear_420_4)"/>
</mask>
<g mask="url(#mask11_420_4)">
<path d="M72.8276 47.9888C74.9886 47.9888 76.7404 46.203 76.7404 44.0001C76.7404 41.7972 74.9886 40.0114 72.8276 40.0114C70.6667 40.0114 68.9149 41.7972 68.9149 44.0001C68.9149 46.203 70.6667 47.9888 72.8276 47.9888Z" fill="url(#paint23_linear_420_4)"/>
</g>
<mask id="mask12_420_4" style="mask-type:alpha" maskUnits="userSpaceOnUse" x="0" y="60" width="9" height="9">
<path d="M4.84552 68.0155C7.00642 68.0155 8.75818 66.2296 8.75818 64.0268C8.75818 61.8239 7.00642 60.0381 4.84552 60.0381C2.68461 60.0381 0.932861 61.8239 0.932861 64.0268C0.932861 66.2296 2.68461 68.0155 4.84552 68.0155Z" fill="url(#paint24_linear_420_4)"/>
</mask>
<g mask="url(#mask12_420_4)">
<path d="M4.84552 68.0152C7.00642 68.0152 8.75818 66.2294 8.75818 64.0265C8.75818 61.8236 7.00642 60.0379 4.84552 60.0379C2.68461 60.0379 0.932861 61.8236 0.932861 64.0265C0.932861 66.2294 2.68461 68.0152 4.84552 68.0152Z" fill="url(#paint25_linear_420_4)"/>
</g>
<mask id="mask13_420_4" style="mask-type:alpha" maskUnits="userSpaceOnUse" x="23" y="60" width="9" height="9">
<path d="M27.506 68.0154C29.6669 68.0154 31.4187 66.2296 31.4187 64.0267C31.4187 61.8239 29.6669 60.0381 27.506 60.0381C25.3451 60.0381 23.5934 61.8239 23.5934 64.0267C23.5934 66.2296 25.3451 68.0154 27.506 68.0154Z" fill="url(#paint26_linear_420_4)"/>
</mask>
<g mask="url(#mask13_420_4)">
<path d="M27.5065 68.0152C29.6674 68.0152 31.4192 66.2294 31.4192 64.0265C31.4192 61.8236 29.6674 60.0378 27.5065 60.0378C25.3455 60.0378 23.5938 61.8236 23.5938 64.0265C23.5938 66.2294 25.3455 68.0152 27.5065 68.0152Z" fill="url(#paint27_linear_420_4)"/>
</g>
<mask id="mask14_420_4" style="mask-type:alpha" maskUnits="userSpaceOnUse" x="46" y="60" width="9" height="9">
<path d="M50.1666 68.0154C52.3275 68.0154 54.0792 66.2296 54.0792 64.0267C54.0792 61.8239 52.3275 60.0381 50.1666 60.0381C48.0057 60.0381 46.2539 61.8239 46.2539 64.0267C46.2539 66.2296 48.0057 68.0154 50.1666 68.0154Z" fill="url(#paint28_linear_420_4)"/>
</mask>
<g mask="url(#mask14_420_4)">
<path d="M50.1672 68.0152C52.3281 68.0152 54.0799 66.2294 54.0799 64.0265C54.0799 61.8236 52.3281 60.0378 50.1672 60.0378C48.0063 60.0378 46.2546 61.8236 46.2546 64.0265C46.2546 66.2294 48.0063 68.0152 50.1672 68.0152Z" fill="url(#paint29_linear_420_4)"/>
</g>
<mask id="mask15_420_4" style="mask-type:alpha" maskUnits="userSpaceOnUse" x="68" y="60" width="9" height="9">
<path d="M72.827 68.0154C74.988 68.0154 76.7397 66.2296 76.7397 64.0267C76.7397 61.8239 74.988 60.0381 72.827 60.0381C70.6661 60.0381 68.9143 61.8239 68.9143 64.0267C68.9143 66.2296 70.6661 68.0154 72.827 68.0154Z" fill="url(#paint30_linear_420_4)"/>
</mask>
<g mask="url(#mask15_420_4)">
<path d="M72.8276 68.0152C74.9886 68.0152 76.7404 66.2294 76.7404 64.0265C76.7404 61.8236 74.9886 60.0378 72.8276 60.0378C70.6667 60.0378 68.9149 61.8236 68.9149 64.0265C68.9149 66.2294 70.6667 68.0152 72.8276 68.0152Z" fill="url(#paint31_linear_420_4)"/>
</g>
</g>
<defs>
<linearGradient id="paint0_linear_420_4" x1="39.0384" y1="92.4708" x2="-16.4926" y2="-45.8062" gradientUnits="userSpaceOnUse">
<stop stop-color="#89C5CC"/>
<stop offset="1" stop-color="#89C5CC"/>
</linearGradient>
<linearGradient id="paint1_linear_420_4" x1="39.0384" y1="92.4708" x2="-16.4926" y2="-45.8062" gradientUnits="userSpaceOnUse">
<stop stop-color="#89C5CC"/>
<stop offset="1" stop-color="#89C5CC"/>
</linearGradient>
<linearGradient id="paint2_linear_420_4" x1="61.6989" y1="92.4708" x2="6.16788" y2="-45.8062" gradientUnits="userSpaceOnUse">
<stop stop-color="#89C5CC"/>
<stop offset="1" stop-color="#89C5CC"/>
</linearGradient>
<linearGradient id="paint3_linear_420_4" x1="61.6999" y1="92.4708" x2="6.16947" y2="-45.8068" gradientUnits="userSpaceOnUse">
<stop stop-color="#89C5CC"/>
<stop offset="1" stop-color="#89C5CC"/>
</linearGradient>
<linearGradient id="paint4_linear_420_4" x1="84.3594" y1="92.4708" x2="28.8284" y2="-45.8062" gradientUnits="userSpaceOnUse">
<stop stop-color="#89C5CC"/>
<stop offset="1" stop-color="#89C5CC"/>
</linearGradient>
<linearGradient id="paint5_linear_420_4" x1="84.3601" y1="92.4708" x2="28.8291" y2="-45.8062" gradientUnits="userSpaceOnUse">
<stop stop-color="#89C5CC"/>
<stop offset="1" stop-color="#89C5CC"/>
</linearGradient>
<linearGradient id="paint6_linear_420_4" x1="107.02" y1="92.4708" x2="51.49" y2="-45.8068" gradientUnits="userSpaceOnUse">
<stop stop-color="#89C5CC"/>
<stop offset="1" stop-color="#89C5CC"/>
</linearGradient>
<linearGradient id="paint7_linear_420_4" x1="107.021" y1="92.4708" x2="51.4906" y2="-45.8068" gradientUnits="userSpaceOnUse">
<stop stop-color="#89C5CC"/>
<stop offset="1" stop-color="#89C5CC"/>
</linearGradient>
<linearGradient id="paint8_linear_420_4" x1="39.0384" y1="112.496" x2="-16.4912" y2="-25.7797" gradientUnits="userSpaceOnUse">
<stop stop-color="#89C5CC"/>
<stop offset="1" stop-color="#89C5CC"/>
</linearGradient>
<linearGradient id="paint9_linear_420_4" x1="39.0384" y1="112.496" x2="-16.4912" y2="-25.7796" gradientUnits="userSpaceOnUse">
<stop stop-color="#89C5CC"/>
<stop offset="1" stop-color="#89C5CC"/>
</linearGradient>
<linearGradient id="paint10_linear_420_4" x1="61.6989" y1="112.497" x2="6.16862" y2="-25.7796" gradientUnits="userSpaceOnUse">
<stop stop-color="#89C5CC"/>
<stop offset="1" stop-color="#89C5CC"/>
</linearGradient>
<linearGradient id="paint11_linear_420_4" x1="61.6999" y1="112.497" x2="6.1702" y2="-25.7803" gradientUnits="userSpaceOnUse">
<stop stop-color="#89C5CC"/>
<stop offset="1" stop-color="#89C5CC"/>
</linearGradient>
<linearGradient id="paint12_linear_420_4" x1="84.3594" y1="112.497" x2="28.8291" y2="-25.7796" gradientUnits="userSpaceOnUse">
<stop stop-color="#89C5CC"/>
<stop offset="1" stop-color="#89C5CC"/>
</linearGradient>
<linearGradient id="paint13_linear_420_4" x1="84.3601" y1="112.497" x2="28.8298" y2="-25.7797" gradientUnits="userSpaceOnUse">
<stop stop-color="#89C5CC"/>
<stop offset="1" stop-color="#89C5CC"/>
</linearGradient>
<linearGradient id="paint14_linear_420_4" x1="107.02" y1="112.497" x2="51.4908" y2="-25.7802" gradientUnits="userSpaceOnUse">
<stop stop-color="#89C5CC"/>
<stop offset="1" stop-color="#89C5CC"/>
</linearGradient>
<linearGradient id="paint15_linear_420_4" x1="107.021" y1="112.497" x2="51.4914" y2="-25.7803" gradientUnits="userSpaceOnUse">
<stop stop-color="#89C5CC"/>
<stop offset="1" stop-color="#89C5CC"/>
</linearGradient>
<linearGradient id="paint16_linear_420_4" x1="39.0384" y1="132.481" x2="-16.4919" y2="-5.79481" gradientUnits="userSpaceOnUse">
<stop stop-color="#89C5CC"/>
<stop offset="1" stop-color="#89C5CC"/>
</linearGradient>
<linearGradient id="paint17_linear_420_4" x1="39.0384" y1="132.482" x2="-16.4926" y2="-5.79478" gradientUnits="userSpaceOnUse">
<stop stop-color="#89C5CC"/>
<stop offset="1" stop-color="#89C5CC"/>
</linearGradient>
<linearGradient id="paint18_linear_420_4" x1="61.6989" y1="132.482" x2="6.16788" y2="-5.79459" gradientUnits="userSpaceOnUse">
<stop stop-color="#89C5CC"/>
<stop offset="1" stop-color="#89C5CC"/>
</linearGradient>
<linearGradient id="paint19_linear_420_4" x1="61.6999" y1="132.482" x2="6.16947" y2="-5.79538" gradientUnits="userSpaceOnUse">
<stop stop-color="#89C5CC"/>
<stop offset="1" stop-color="#89C5CC"/>
</linearGradient>
<linearGradient id="paint20_linear_420_4" x1="84.3594" y1="132.482" x2="28.8284" y2="-5.79459" gradientUnits="userSpaceOnUse">
<stop stop-color="#89C5CC"/>
<stop offset="1" stop-color="#89C5CC"/>
</linearGradient>
<linearGradient id="paint21_linear_420_4" x1="84.3601" y1="132.482" x2="28.8291" y2="-5.79478" gradientUnits="userSpaceOnUse">
<stop stop-color="#89C5CC"/>
<stop offset="1" stop-color="#89C5CC"/>
</linearGradient>
<linearGradient id="paint22_linear_420_4" x1="107.02" y1="132.482" x2="51.49" y2="-5.79519" gradientUnits="userSpaceOnUse">
<stop stop-color="#89C5CC"/>
<stop offset="1" stop-color="#89C5CC"/>
</linearGradient>
<linearGradient id="paint23_linear_420_4" x1="107.021" y1="132.482" x2="51.4906" y2="-5.79538" gradientUnits="userSpaceOnUse">
<stop stop-color="#89C5CC"/>
<stop offset="1" stop-color="#89C5CC"/>
</linearGradient>
<linearGradient id="paint24_linear_420_4" x1="39.0384" y1="152.509" x2="-16.4926" y2="14.2319" gradientUnits="userSpaceOnUse">
<stop stop-color="#89C5CC"/>
<stop offset="1" stop-color="#89C5CC"/>
</linearGradient>
<linearGradient id="paint25_linear_420_4" x1="39.0384" y1="152.509" x2="-16.4926" y2="14.2317" gradientUnits="userSpaceOnUse">
<stop stop-color="#89C5CC"/>
<stop offset="1" stop-color="#89C5CC"/>
</linearGradient>
<linearGradient id="paint26_linear_420_4" x1="61.6989" y1="152.509" x2="6.16788" y2="14.2319" gradientUnits="userSpaceOnUse">
<stop stop-color="#89C5CC"/>
<stop offset="1" stop-color="#89C5CC"/>
</linearGradient>
<linearGradient id="paint27_linear_420_4" x1="61.6999" y1="152.509" x2="6.16947" y2="14.2311" gradientUnits="userSpaceOnUse">
<stop stop-color="#89C5CC"/>
<stop offset="1" stop-color="#89C5CC"/>
</linearGradient>
<linearGradient id="paint28_linear_420_4" x1="84.3594" y1="152.509" x2="28.8284" y2="14.2319" gradientUnits="userSpaceOnUse">
<stop stop-color="#89C5CC"/>
<stop offset="1" stop-color="#89C5CC"/>
</linearGradient>
<linearGradient id="paint29_linear_420_4" x1="84.3601" y1="152.509" x2="28.8291" y2="14.2317" gradientUnits="userSpaceOnUse">
<stop stop-color="#89C5CC"/>
<stop offset="1" stop-color="#89C5CC"/>
</linearGradient>
<linearGradient id="paint30_linear_420_4" x1="107.02" y1="152.509" x2="51.49" y2="14.2313" gradientUnits="userSpaceOnUse">
<stop stop-color="#89C5CC"/>
<stop offset="1" stop-color="#89C5CC"/>
</linearGradient>
<linearGradient id="paint31_linear_420_4" x1="107.021" y1="152.509" x2="51.4906" y2="14.2311" gradientUnits="userSpaceOnUse">
<stop stop-color="#89C5CC"/>
<stop offset="1" stop-color="#89C5CC"/>
</linearGradient>
</defs>
</svg>