<svg width="104" height="26" viewBox="0 0 104 26" fill="none" xmlns="http://www.w3.org/2000/svg">
<path d="M7.80627 9V11.5H0.579712V9H7.80627ZM2.22034 6.125H5.54846V17.3125C5.54846 17.6198 5.59534 17.8594 5.68909 18.0312C5.78284 18.1979 5.91305 18.3151 6.07971 18.3828C6.25159 18.4505 6.4495 18.4844 6.67346 18.4844C6.82971 18.4844 6.98596 18.4714 7.14221 18.4453C7.29846 18.4141 7.41825 18.3906 7.50159 18.375L8.02502 20.8516C7.85836 20.9036 7.62398 20.9635 7.3219 21.0313C7.01982 21.1042 6.65263 21.1484 6.22034 21.1641C5.41825 21.1953 4.71513 21.0885 4.11096 20.8437C3.512 20.599 3.04586 20.2187 2.71252 19.7031C2.37919 19.1875 2.21513 18.5365 2.22034 17.75V6.125ZM9.97424 21V9H13.2008V11.0937H13.3258C13.5446 10.349 13.9117 9.78646 14.4274 9.40625C14.943 9.02083 15.5367 8.82812 16.2086 8.82812C16.3753 8.82812 16.555 8.83854 16.7477 8.85937C16.9404 8.88021 17.1097 8.90885 17.2555 8.94531V11.8984C17.0992 11.8516 16.8831 11.8099 16.6071 11.7734C16.331 11.737 16.0784 11.7188 15.8492 11.7188C15.3597 11.7188 14.9222 11.8255 14.5367 12.0391C14.1565 12.2474 13.8545 12.5391 13.6305 12.9141C13.4117 13.2891 13.3024 13.7214 13.3024 14.2109V21H9.97424ZM23.8864 21.2344C22.652 21.2344 21.5895 20.9844 20.6989 20.4844C19.8134 19.9792 19.1311 19.2656 18.652 18.3437C18.1728 17.4167 17.9332 16.3203 17.9332 15.0547C17.9332 13.8203 18.1728 12.737 18.652 11.8047C19.1311 10.8724 19.8056 10.1458 20.6754 9.625C21.5504 9.10417 22.5765 8.84375 23.7535 8.84375C24.5452 8.84375 25.2822 8.97135 25.9645 9.22656C26.652 9.47656 27.2509 9.85417 27.7614 10.3594C28.277 10.8646 28.678 11.5 28.9645 12.2656C29.2509 13.026 29.3942 13.9167 29.3942 14.9375V15.8516H19.2614V13.7891H26.2614C26.2614 13.3099 26.1572 12.8854 25.9489 12.5156C25.7405 12.1458 25.4515 11.8568 25.0817 11.6484C24.7171 11.4349 24.2926 11.3281 23.8082 11.3281C23.303 11.3281 22.8551 11.4453 22.4645 11.6797C22.0791 11.9089 21.777 12.2187 21.5582 12.6094C21.3395 12.9948 21.2275 13.4245 21.2223 13.8984V15.8594C21.2223 16.4531 21.3317 16.9661 21.5504 17.3984C21.7744 17.8307 22.0895 18.1641 22.4957 18.3984C22.902 18.6328 23.3837 18.75 23.941 18.75C24.3108 18.75 24.6494 18.6979 24.9567 18.5938C25.264 18.4896 25.527 18.3333 25.7457 18.125C25.9645 17.9167 26.1311 17.6615 26.2457 17.3594L29.3239 17.5625C29.1676 18.3021 28.8473 18.9479 28.3629 19.5C27.8837 20.0469 27.264 20.474 26.5035 20.7813C25.7483 21.0833 24.8759 21.2344 23.8864 21.2344ZM31.566 21V9H34.8942V21H31.566ZM33.2379 7.45312C32.7431 7.45312 32.3186 7.28906 31.9645 6.96094C31.6155 6.6276 31.441 6.22917 31.441 5.76562C31.441 5.30729 31.6155 4.91406 31.9645 4.58594C32.3186 4.2526 32.7431 4.08594 33.2379 4.08594C33.7327 4.08594 34.1546 4.2526 34.5035 4.58594C34.8577 4.91406 35.0348 5.30729 35.0348 5.76562C35.0348 6.22917 34.8577 6.6276 34.5035 6.96094C34.1546 7.28906 33.7327 7.45312 33.2379 7.45312ZM40.8883 14.0625V21H37.5602V9H40.7321V11.1172H40.8727C41.1383 10.4193 41.5836 9.86719 42.2086 9.46094C42.8336 9.04948 43.5914 8.84375 44.4821 8.84375C45.3154 8.84375 46.042 9.02604 46.6617 9.39062C47.2815 9.75521 47.7633 10.276 48.1071 10.9531C48.4508 11.625 48.6227 12.4271 48.6227 13.3594V21H45.2946V13.9531C45.2998 13.2187 45.1123 12.6458 44.7321 12.2344C44.3518 11.8177 43.8284 11.6094 43.1617 11.6094C42.7138 11.6094 42.318 11.7057 41.9742 11.8984C41.6357 12.0911 41.3701 12.3724 41.1774 12.7422C40.9899 13.1068 40.8935 13.5469 40.8883 14.0625ZM56.7145 21.2344C55.4801 21.2344 54.4176 20.9844 53.527 20.4844C52.6416 19.9792 51.9593 19.2656 51.4801 18.3437C51.0009 17.4167 50.7614 16.3203 50.7614 15.0547C50.7614 13.8203 51.0009 12.737 51.4801 11.8047C51.9593 10.8724 52.6337 10.1458 53.5035 9.625C54.3785 9.10417 55.4046 8.84375 56.5817 8.84375C57.3733 8.84375 58.1103 8.97135 58.7926 9.22656C59.4801 9.47656 60.0791 9.85417 60.5895 10.3594C61.1051 10.8646 61.5061 11.5 61.7926 12.2656C62.0791 13.026 62.2223 13.9167 62.2223 14.9375V15.8516H52.0895V13.7891H59.0895C59.0895 13.3099 58.9853 12.8854 58.777 12.5156C58.5686 12.1458 58.2796 11.8568 57.9098 11.6484C57.5452 11.4349 57.1207 11.3281 56.6364 11.3281C56.1311 11.3281 55.6832 11.4453 55.2926 11.6797C54.9072 11.9089 54.6051 12.2187 54.3864 12.6094C54.1676 12.9948 54.0556 13.4245 54.0504 13.8984V15.8594C54.0504 16.4531 54.1598 16.9661 54.3785 17.3984C54.6025 17.8307 54.9176 18.1641 55.3239 18.3984C55.7301 18.6328 56.2119 18.75 56.7692 18.75C57.139 18.75 57.4775 18.6979 57.7848 18.5938C58.0921 18.4896 58.3551 18.3333 58.5739 18.125C58.7926 17.9167 58.9593 17.6615 59.0739 17.3594L62.152 17.5625C61.9957 18.3021 61.6754 18.9479 61.191 19.5C60.7119 20.0469 60.0921 20.474 59.3317 20.7813C58.5765 21.0833 57.7041 21.2344 56.7145 21.2344ZM66.3395 21.2031C65.8239 21.2031 65.3811 21.0208 65.0114 20.6562C64.6468 20.2865 64.4645 19.8437 64.4645 19.3281C64.4645 18.8177 64.6468 18.3802 65.0114 18.0156C65.3811 17.651 65.8239 17.4687 66.3395 17.4687C66.8395 17.4687 67.277 17.651 67.652 18.0156C68.027 18.3802 68.2145 18.8177 68.2145 19.3281C68.2145 19.6719 68.1259 19.987 67.9489 20.2734C67.777 20.5547 67.5504 20.7812 67.2692 20.9531C66.9879 21.1198 66.678 21.2031 66.3395 21.2031ZM70.9469 21V9H74.1188V11.1172H74.2594C74.5094 10.4141 74.9261 9.85937 75.5094 9.45312C76.0927 9.04687 76.7906 8.84375 77.6031 8.84375C78.4261 8.84375 79.1266 9.04948 79.7047 9.46094C80.2828 9.86719 80.6683 10.4193 80.861 11.1172H80.986C81.2308 10.4297 81.6735 9.88021 82.3141 9.46875C82.9599 9.05208 83.7229 8.84375 84.6032 8.84375C85.7229 8.84375 86.6318 9.20052 87.3297 9.91406C88.0328 10.6224 88.3844 11.6276 88.3844 12.9297V21H85.0641V13.5859C85.0641 12.9193 84.887 12.4193 84.5328 12.0859C84.1787 11.7526 83.736 11.5859 83.2047 11.5859C82.6005 11.5859 82.1292 11.7786 81.7906 12.1641C81.4521 12.5443 81.2828 13.0469 81.2828 13.6719V21H78.0563V13.5156C78.0563 12.9271 77.887 12.4583 77.5485 12.1094C77.2151 11.7604 76.775 11.5859 76.2281 11.5859C75.8584 11.5859 75.525 11.6797 75.2281 11.8672C74.9365 12.0495 74.7047 12.3073 74.5328 12.6406C74.361 12.9687 74.275 13.3542 74.275 13.7969V21H70.9469ZM96.4821 21.2344C95.2477 21.2344 94.1852 20.9844 93.2946 20.4844C92.4091 19.9792 91.7268 19.2656 91.2477 18.3437C90.7685 17.4167 90.5289 16.3203 90.5289 15.0547C90.5289 13.8203 90.7685 12.737 91.2477 11.8047C91.7268 10.8724 92.4013 10.1458 93.2711 9.625C94.1461 9.10417 95.1722 8.84375 96.3492 8.84375C97.1409 8.84375 97.8779 8.97135 98.5602 9.22656C99.2477 9.47656 99.8466 9.85417 100.357 10.3594C100.873 10.8646 101.274 11.5 101.56 12.2656C101.847 13.026 101.99 13.9167 101.99 14.9375V15.8516H91.8571V13.7891H98.8571C98.8571 13.3099 98.7529 12.8854 98.5446 12.5156C98.3362 12.1458 98.0472 11.8568 97.6774 11.6484C97.3128 11.4349 96.8883 11.3281 96.4039 11.3281C95.8987 11.3281 95.4508 11.4453 95.0602 11.6797C94.6748 11.9089 94.3727 12.2187 94.1539 12.6094C93.9352 12.9948 93.8232 13.4245 93.818 13.8984V15.8594C93.818 16.4531 93.9274 16.9661 94.1461 17.3984C94.3701 17.8307 94.6852 18.1641 95.0914 18.3984C95.4977 18.6328 95.9795 18.75 96.5367 18.75C96.9065 18.75 97.2451 18.6979 97.5524 18.5938C97.8597 18.4896 98.1227 18.3333 98.3414 18.125C98.5602 17.9167 98.7268 17.6615 98.8414 17.3594L101.92 17.5625C101.763 18.3021 101.443 18.9479 100.959 19.5C100.479 20.0469 99.8597 20.474 99.0992 20.7813C98.344 21.0833 97.4716 21.2344 96.4821 21.2344Z" fill="#89C5CC"/>
</svg>
